<?xml version="1.0" encoding="UTF-8"?>
<svg id="Layer_1" data-name="Layer 1" xmlns="http://www.w3.org/2000/svg" viewBox="0 0 299 231.48">
  <defs>
    <style>
      .cls-1 {
        stroke-width: 3px;
      }

      .cls-1, .cls-2 {
        fill: none;
        stroke: #010101;
        stroke-miterlimit: 10;
      }

      .cls-3 {
        fill: #010101;
      }

      .cls-4 {
        fill: #fff;
      }

      .cls-5 {
        fill: #bbbcbc;
      }
    </style>
  </defs>
  <g>
    <rect class="cls-5" x=".5" y=".5" width="298" height="230.48"/>
    <path class="cls-3" d="M298,1V230.48H1V1H298m1-1H0V231.48H299V0h0Z"/>
  </g>
  <path class="cls-2" d="M49.14,64.6H246.31c3.86,0,7,3.14,7,7V200c0,1.66-1.35,3.01-3.01,3.01H45.15c-1.66,0-3.01-1.35-3.01-3.01V71.6c0-3.86,3.14-7,7-7Z"/>
  <g>
    <path class="cls-4" d="M127.5,116.71c-5.73,18.67-11.17,36.39-16.6,54.12q-1.99,6.5-8.89,6.5c-2.71,0-5.43-.19-8.12,.05-3.42,.31-4.83-1.29-5.57-4.43-6.78-28.73-13.66-57.44-20.47-86.16-1.12-4.72-.5-5.41,4.48-5.43,3.93-.02,7.87,.2,11.78-.06,3.75-.25,4.89,1.72,5.55,4.93,3.43,16.85,6.98,33.68,10.5,50.52,.15,.74,.4,1.46,.89,3.24,.8-2.12,1.32-3.26,1.68-4.45,3.24-10.62,6.25-21.31,9.76-31.84,1.66-4.97,3.92-9.81,6.53-14.36,3.23-5.66,8.46-8.99,15.44-10.65,6.28,20.25,12.55,40.48,18.83,60.7,.25,.03,.51,.07,.76,.1,.49-1.96,1.02-3.92,1.45-5.89,2.21-10.19,3.94-20.51,6.75-30.53,1.54-5.48,4.3-10.86,7.57-15.54,4.33-6.21,10.93-8.91,18.97-8.8-3.89,16.5-7.66,32.56-11.46,48.63-3.52,14.89-7.17,29.76-10.5,44.69-.91,4.06-2.66,5.82-6.89,5.38-3.08-.32-6.24-.27-9.33,0-3.49,.29-5.07-1.18-6.03-4.46-5.13-17.4-10.44-34.75-15.7-52.12-.31-1.02-.67-2.03-1.36-4.1Z"/>
    <path class="cls-4" d="M180.07,158.47c12.96,2.99,25.91,5.99,38.87,8.97,11.22,2.58,9.89,1.71,7.55,11.86-2.57,11.19-1.06,10.11-12.08,7.61-13.27-3.01-26.49-6.21-39.78-9.1-3.72-.81-4.85-2.29-3.97-6.09,6.79-28.98,13.48-57.99,20.09-87.02,.83-3.63,2.32-5.06,6.12-3.94,4.03,1.18,8.17,2.03,12.29,2.86,2.96,.6,4.03,2.15,3.34,5.09-3.3,14.08-6.38,28.22-9.91,42.24-3.13,12.44-9.56,22.4-22.51,27.52Z"/>
  </g>
  <path class="cls-1" d="M111.28,63.21v-6.23c0-9.46,7.67-17.13,17.13-17.13h38.61c9.46,0,17.13,7.67,17.13,17.13v6.23"/>
</svg>